<svg width="16" height="16" viewBox="0 0 16 16" fill="none" xmlns="http://www.w3.org/2000/svg">
<path d="M13.656 0H2.344C1.72258 0.000793815 1.12683 0.248005 0.687418 0.687418C0.248005 1.12683 0.000793815 1.72258 0 2.344L0 13.656C0.000793815 14.2774 0.248005 14.8732 0.687418 15.3126C1.12683 15.752 1.72258 15.9992 2.344 16H7.063V10.344H5.188V7.531H7.063V5.625C7.06406 4.87954 7.36066 4.16491 7.88778 3.63778C8.41491 3.11066 9.12954 2.81406 9.875 2.813H12.719V5.625H9.875V7.531H12.719L12.25 10.344H9.875V16H13.656C14.2774 15.9992 14.8732 15.752 15.3126 15.3126C15.752 14.8732 15.9992 14.2774 16 13.656V2.344C15.9992 1.72258 15.752 1.12683 15.3126 0.687418C14.8732 0.248005 14.2774 0.000793815 13.656 0Z" fill="#1BD569"/>
</svg>
