<svg width="16" height="16" viewBox="0 0 16 16" fill="none" xmlns="http://www.w3.org/2000/svg">
<path d="M11.669 0H4.33099C3.18275 0.00132332 2.08192 0.458048 1.26999 1.26998C0.458056 2.08191 0.00132332 3.18275 0 4.331V11.669C0.00132332 12.8172 0.458056 13.9181 1.26999 14.73C2.08192 15.542 3.18275 15.9987 4.33099 16H11.669C12.8173 15.9987 13.9181 15.542 14.73 14.73C15.5419 13.9181 15.9987 12.8172 16 11.669V4.331C15.9987 3.18275 15.5419 2.08191 14.73 1.26998C13.9181 0.458048 12.8173 0.00132332 11.669 0ZM8 12.375C7.13471 12.375 6.28883 12.1184 5.56937 11.6377C4.8499 11.1569 4.28917 10.4737 3.95804 9.67424C3.6269 8.87481 3.54027 7.99515 3.70908 7.14648C3.87789 6.29781 4.29455 5.51826 4.9064 4.90641C5.51826 4.29455 6.29782 3.87787 7.14648 3.70906C7.99515 3.54025 8.8748 3.62689 9.67422 3.95803C10.4737 4.28916 11.1569 4.84992 11.6377 5.56938C12.1184 6.28885 12.375 7.13471 12.375 8C12.3737 9.15992 11.9123 10.2719 11.0921 11.0921C10.2719 11.9123 9.15992 12.3737 8 12.375ZM12.48 4.657C12.2243 4.657 11.9743 4.58117 11.7617 4.43909C11.549 4.29701 11.3833 4.09508 11.2854 3.85881C11.1876 3.62255 11.162 3.36257 11.2119 3.11175C11.2617 2.86093 11.3849 2.63054 11.5657 2.44971C11.7465 2.26888 11.9769 2.14574 12.2278 2.09584C12.4786 2.04595 12.7386 2.07156 12.9748 2.16942C13.2111 2.26729 13.413 2.43302 13.5551 2.64565C13.6972 2.85828 13.773 3.10827 13.773 3.364C13.7727 3.70684 13.6364 4.03557 13.394 4.278C13.1516 4.52042 12.8229 4.65674 12.48 4.657Z" fill="#1BD569"/>
<path d="M7.99942 5.06641C7.41933 5.06641 6.85223 5.23842 6.3699 5.5607C5.88758 5.88298 5.51164 6.34105 5.28964 6.87698C5.06765 7.41292 5.0096 8.00265 5.12277 8.57159C5.23594 9.14054 5.51526 9.66315 5.92545 10.0733C6.33563 10.4835 6.85827 10.7629 7.42722 10.876C7.99616 10.9892 8.58586 10.9311 9.1218 10.7091C9.65773 10.4871 10.1158 10.1112 10.4381 9.62888C10.7604 9.14655 10.9324 8.57948 10.9324 7.99939C10.9313 7.22183 10.622 6.47642 10.0722 5.92661C9.52236 5.37679 8.77698 5.06746 7.99942 5.06641Z" fill="#1BD569"/>
</svg>
