<svg width="16" height="22" viewBox="0 0 16 22" fill="none" xmlns="http://www.w3.org/2000/svg">
<path d="M7.62 0C5.59978 0.00238187 3.66299 0.805966 2.23448 2.23448C0.805971 3.66299 0.00238187 5.59978 0 7.62C0 12.834 6.819 20.489 7.109 20.813C7.17334 20.8847 7.25205 20.942 7.34 20.9812C7.42796 21.0205 7.52319 21.0408 7.6195 21.0408C7.71581 21.0408 7.81105 21.0205 7.899 20.9812C7.98696 20.942 8.06567 20.8847 8.13 20.813C8.42 20.49 15.239 12.835 15.239 7.62C15.2366 5.59995 14.4332 3.66331 13.0049 2.23483C11.5766 0.806347 9.64005 0.00264645 7.62 0V0ZM7.62 11.454C6.86171 11.454 6.12044 11.2291 5.48994 10.8079C4.85945 10.3866 4.36804 9.78778 4.07785 9.08721C3.78766 8.38664 3.71174 7.61575 3.85967 6.87202C4.00761 6.1283 4.37276 5.44515 4.90895 4.90895C5.44515 4.37276 6.1283 4.00761 6.87202 3.85967C7.61575 3.71173 8.38664 3.78766 9.08721 4.07785C9.78778 4.36803 10.3866 4.85945 10.8079 5.48994C11.2291 6.12044 11.454 6.86171 11.454 7.62C11.4529 8.63651 11.0487 9.61109 10.3299 10.3299C9.61109 11.0487 8.63652 11.4529 7.62 11.454Z" fill="#1BD569"/>
</svg>
