<svg width="14" height="21" viewBox="0 0 14 21" fill="none" xmlns="http://www.w3.org/2000/svg">
<path d="M7.18256 2C4.60059 2 2.5 4.10058 2.5 6.68255V13.3651C2.5 15.9471 4.60059 18.0477 7.18256 18.0477C9.76453 18.0477 11.8651 15.9471 11.8651 13.3651V6.68255C11.8651 4.10058 9.76453 2 7.18256 2ZM7.18256 0C10.8732 0 13.8651 2.99188 13.8651 6.68255V13.3651C13.8651 17.0558 10.8732 20.0477 7.18256 20.0477C3.49189 20.0477 0.5 17.0558 0.5 13.3651V6.68255C0.5 2.99188 3.49189 0 7.18256 0Z" fill="white"/>
<path d="M7.18359 5.80859V8.4086" stroke="white" stroke-width="2" stroke-linecap="round"/>
</svg>
