<svg width="23" height="23" viewBox="0 0 23 23" fill="none" xmlns="http://www.w3.org/2000/svg">
<path d="M4.79655 14.2956C5.48054 13.609 6.26999 13.0364 7.13495 12.5993C7.33755 12.496 7.50953 12.3415 7.63373 12.151C7.75793 11.9606 7.83001 11.7409 7.84276 11.5139L8.15036 9.28294C10.2029 8.59384 12.4242 8.59359 14.4768 9.28223L14.7809 11.4502C14.7806 11.6881 14.846 11.9213 14.9697 12.1244C15.0935 12.3275 15.2709 12.4926 15.4823 12.6014C16.3491 13.0389 17.1402 13.6123 17.8257 14.2999C18.0666 14.5404 18.3932 14.6755 18.7336 14.6755C19.0741 14.6755 19.4006 14.5404 19.6415 14.2999L21.719 12.2224C21.9596 11.9815 22.0947 11.6549 22.0947 11.3145C22.0947 10.974 21.9596 10.6475 21.719 10.4065C18.957 7.6509 15.2148 6.10334 11.3132 6.10334C7.4117 6.10334 3.66945 7.6509 0.907462 10.4065C0.66691 10.6475 0.531801 10.974 0.531801 11.3145C0.531801 11.6549 0.66691 11.9815 0.907462 12.2224L2.97928 14.2942C3.09851 14.4136 3.2401 14.5084 3.39595 14.5731C3.55181 14.6378 3.71888 14.6711 3.88762 14.6713C4.05637 14.6714 4.22349 14.6383 4.37945 14.5738C4.5354 14.5094 4.67713 14.4148 4.79655 14.2956Z" fill="#1BD569"/>
</svg>
