<svg width="5" height="9" viewBox="0 0 5 9" fill="none" xmlns="http://www.w3.org/2000/svg">
<path d="M0.395668 0.127878L0.131668 0.389878C0.0499009 0.472131 0.00400543 0.583398 0.00400543 0.699378C0.00400543 0.815359 0.0499009 0.926626 0.131668 1.00888L3.12067 3.99988L0.127663 6.99288C0.0458954 7.07513 0 7.1864 0 7.30238C0 7.41836 0.0458954 7.52963 0.127663 7.61188L0.389664 7.87388C0.471787 7.95589 0.583105 8.00195 0.699165 8.00195C0.815226 8.00195 0.926543 7.95589 1.00867 7.87388L4.58466 4.31088C4.67036 4.23003 4.72067 4.11862 4.72466 4.00088V3.99988C4.72041 3.88248 4.67012 3.77148 4.58466 3.69088L1.01867 0.130878C0.977343 0.0891423 0.928113 0.0560613 0.873856 0.0335689C0.819599 0.0110765 0.761401 -0.000376701 0.702667 -0.000121117C0.587484 0.000518799 0.47719 0.046504 0.395668 0.127878Z" fill="#1BD569"/>
</svg>
