<svg width="22" height="15" viewBox="0 0 22 15" fill="none" xmlns="http://www.w3.org/2000/svg">
<path d="M20.17 1.7418C19.599 0.725798 18.978 0.541796 17.716 0.467796C16.454 0.393796 13.283 0.341797 10.535 0.341797C7.787 0.341797 4.609 0.3778 3.349 0.4618C2.089 0.5458 1.468 0.719798 0.891 1.7418C0.314 2.7638 0 4.5008 0 7.5788V7.5898C0 10.6548 0.3 12.4168 0.891 13.4208C1.482 14.4248 2.091 14.6208 3.348 14.7068C4.605 14.7928 7.782 14.8238 10.535 14.8238C13.288 14.8238 16.454 14.7808 17.717 14.7078C18.98 14.6348 19.6 14.4378 20.171 13.4218C20.765 12.4218 21.065 10.6558 21.065 7.5908V7.5798C21.066 4.5008 20.765 2.7528 20.17 1.7418ZM7.9 11.5328V3.6328L14.483 7.58279L7.9 11.5328Z" fill="#1BD569"/>
</svg>
